<svg viewBox="147.46665954589844 67.98333740234375 844.0166625976562 839.316650390625" height="839.316650390625" width="844.0166625976562" xmlns:xlink="http://www.w3.org/1999/xlink" version="1.1" xmlns="http://www.w3.org/2000/svg" id="drawing"><defs id="SvgjsDefs1214"><marker markerUnits="userSpaceOnUse" orient="auto" viewBox="-1 -1.3763819204711736 16.23606797749979 10.550836550532098" refY="3.8990363547948754" refX="-1" markerHeight="10.550836550532098" markerWidth="16.23606797749979" id="SvgjsMarker1277"><path transform="matrix(1,0,0,1,0,0)" fill="#323232" stroke-width="2" stroke="#323232" d="M12 3.899036407470703L0 7.798072814941406V0z " id="SvgjsPath1278"></path></marker><marker markerUnits="userSpaceOnUse" orient="auto" viewBox="-1 -1.3763819204711736 16.23606797749979 10.550836550532098" refY="3.8990363547948754" refX="-1" markerHeight="10.550836550532098" markerWidth="16.23606797749979" id="SvgjsMarker1301"><path transform="matrix(1,0,0,1,0,0)" fill="#323232" stroke-width="2" stroke="#323232" d="M12 3.899036407470703L0 7.798072814941406V0z " id="SvgjsPath1302"></path></marker><marker markerUnits="userSpaceOnUse" orient="auto" viewBox="-1 -1.3763819204711736 16.23606797749979 10.550836550532098" refY="3.8990363547948754" refX="-1" markerHeight="10.550836550532098" markerWidth="16.23606797749979" id="SvgjsMarker1308"><path transform="matrix(1,0,0,1,0,0)" fill="#323232" stroke-width="2" stroke="#323232" d="M12 3.899036407470703L0 7.798072814941406V0z " id="SvgjsPath1309"></path></marker><marker markerUnits="userSpaceOnUse" orient="auto" viewBox="-1 -1.3763819204711736 16.23606797749979 10.550836550532098" refY="3.8990363547948754" refX="-1" markerHeight="10.550836550532098" markerWidth="16.23606797749979" id="SvgjsMarker1318"><path transform="matrix(1,0,0,1,0,0)" fill="#323232" stroke-width="2" stroke="#323232" d="M12 3.899036407470703L0 7.798072814941406V0z " id="SvgjsPath1319"></path></marker><marker markerUnits="userSpaceOnUse" orient="auto" viewBox="-1 -1.3763819204711736 16.23606797749979 10.550836550532098" refY="3.8990363547948754" refX="-1" markerHeight="10.550836550532098" markerWidth="16.23606797749979" id="SvgjsMarker1325"><path transform="matrix(1,0,0,1,0,0)" fill="#323232" stroke-width="2" stroke="#323232" d="M12 3.899036407470703L0 7.798072814941406V0z " id="SvgjsPath1326"></path></marker><marker markerUnits="userSpaceOnUse" orient="auto" viewBox="-1 -1.3763819204711736 16.23606797749979 10.550836550532098" refY="3.8990363547948754" refX="-1" markerHeight="10.550836550532098" markerWidth="16.23606797749979" id="SvgjsMarker1332"><path transform="matrix(1,0,0,1,0,0)" fill="#323232" stroke-width="2" stroke="#323232" d="M12 3.899036407470703L0 7.798072814941406V0z " id="SvgjsPath1333"></path></marker><marker markerUnits="userSpaceOnUse" orient="auto" viewBox="-1 -1.3763819204711736 16.23606797749979 10.550836550532098" refY="3.8990363547948754" refX="-1" markerHeight="10.550836550532098" markerWidth="16.23606797749979" id="SvgjsMarker1339"><path transform="matrix(1,0,0,1,0,0)" fill="#323232" stroke-width="2" stroke="#323232" d="M12 3.899036407470703L0 7.798072814941406V0z " id="SvgjsPath1340"></path></marker><marker markerUnits="userSpaceOnUse" orient="auto" viewBox="-1 -1.3763819204711736 16.23606797749979 10.550836550532098" refY="3.8990363547948754" refX="-1" markerHeight="10.550836550532098" markerWidth="16.23606797749979" id="SvgjsMarker1346"><path transform="matrix(1,0,0,1,0,0)" fill="#323232" stroke-width="2" stroke="#323232" d="M12 3.899036407470703L0 7.798072814941406V0z " id="SvgjsPath1347"></path></marker><marker markerUnits="userSpaceOnUse" orient="auto" viewBox="-1 -1.3763819204711736 16.23606797749979 10.550836550532098" refY="3.8990363547948754" refX="-1" markerHeight="10.550836550532098" markerWidth="16.23606797749979" id="SvgjsMarker1359"><path transform="matrix(1,0,0,1,0,0)" fill="#323232" stroke-width="2" stroke="#323232" d="M12 3.899036407470703L0 7.798072814941406V0z " id="SvgjsPath1360"></path></marker><marker markerUnits="userSpaceOnUse" orient="auto" viewBox="-1 -1.3763819204711736 16.23606797749979 10.550836550532098" refY="3.8990363547948754" refX="-1" markerHeight="10.550836550532098" markerWidth="16.23606797749979" id="SvgjsMarker1377"><path transform="matrix(1,0,0,1,0,0)" fill="#323232" stroke-width="2" stroke="#323232" d="M12 3.899036407470703L0 7.798072814941406V0z " id="SvgjsPath1378"></path></marker><marker markerUnits="userSpaceOnUse" orient="auto" viewBox="-1 -1.3763819204711736 16.23606797749979 10.550836550532098" refY="3.8990363547948754" refX="-1" markerHeight="10.550836550532098" markerWidth="16.23606797749979" id="SvgjsMarker1384"><path transform="matrix(1,0,0,1,0,0)" fill="#323232" stroke-width="2" stroke="#323232" d="M12 3.899036407470703L0 7.798072814941406V0z " id="SvgjsPath1385"></path></marker><marker markerUnits="userSpaceOnUse" orient="auto" viewBox="-1 -1.3763819204711736 16.23606797749979 10.550836550532098" refY="3.8990363547948754" refX="-1" markerHeight="10.550836550532098" markerWidth="16.23606797749979" id="SvgjsMarker1391"><path transform="matrix(1,0,0,1,0,0)" fill="#323232" stroke-width="2" stroke="#323232" d="M12 3.899036407470703L0 7.798072814941406V0z " id="SvgjsPath1392"></path></marker><marker markerUnits="userSpaceOnUse" orient="auto" viewBox="-1 -1.3763819204711736 16.23606797749979 10.550836550532098" refY="3.8990363547948754" refX="-1" markerHeight="10.550836550532098" markerWidth="16.23606797749979" id="SvgjsMarker1398"><path transform="matrix(1,0,0,1,0,0)" fill="#323232" stroke-width="2" stroke="#323232" d="M12 3.899036407470703L0 7.798072814941406V0z " id="SvgjsPath1399"></path></marker><marker markerUnits="userSpaceOnUse" orient="auto" viewBox="-1 -1.3763819204711736 16.23606797749979 10.550836550532098" refY="3.8990363547948754" refX="-1" markerHeight="10.550836550532098" markerWidth="16.23606797749979" id="SvgjsMarker1409"><path transform="matrix(1,0,0,1,0,0)" fill="#323232" stroke-width="2" stroke="#323232" d="M12 3.899036407470703L0 7.798072814941406V0z " id="SvgjsPath1410"></path></marker><marker markerUnits="userSpaceOnUse" orient="auto" viewBox="-1 -1.3763819204711736 16.23606797749979 10.550836550532098" refY="3.8990363547948754" refX="-1" markerHeight="10.550836550532098" markerWidth="16.23606797749979" id="SvgjsMarker1416"><path transform="matrix(1,0,0,1,0,0)" fill="#323232" stroke-width="2" stroke="#323232" d="M12 3.899036407470703L0 7.798072814941406V0z " id="SvgjsPath1417"></path></marker></defs><g id="SvgjsG1215"><path fill="#ffffff" fill-opacity="1" d="M147.46665954589844 67.98333740234375H991.4833374023438V907.2999877929688H147.46665954589844V67.98333740234375z " id="SvgjsPath1216"></path><g id="SvgjsG1217"><g opacity="1" transform="translate(171.48333740234375 322.0500030517578)" id="SvgjsG1218"><path opacity="1" fill="#ffffff" stroke-width="2" stroke="#323232" stroke-dasharray="10 4" d="M0 0L796 0L796 388L0 388z " id="SvgjsPath1219"></path></g><g opacity="1" transform="translate(253.6875 92)" id="SvgjsG1220"><path opacity="1" fill="#cfcfcf" stroke-width="2" stroke="#323232" stroke-dasharray="none" d="M16.66666603088379 0L83.33333587646484 0C105.55555725097656 0 105.55555725097656 50 83.33333587646484 50L16.66666603088379 50C-5.55555534362793 50 -5.55555534362793 0 16.66666603088379 0z " id="SvgjsPath1221"></path><g fill="#ffffff" transform="matrix(1 0 0 1 10 16.875)" id="SvgjsG1222"><text y="12.283333778381348" x="40" text-decoration="blink" text-anchor="middle" font-style="normal" font-weight="normal" font-size="13" fill="#323232" font-family="Arial,宋体" id="SvgjsText1223">Start</text></g></g><g opacity="1" transform="translate(235.1875 167)" id="SvgjsG1224"><path opacity="1" fill="#66ff66" stroke-width="2" stroke="#323232" stroke-dasharray="none" d="M0 0L137 0L137 80L0 80z " id="SvgjsPath1225"></path><g fill="#ffffff" transform="matrix(1 0 0 1 10 7.5)" id="SvgjsG1226"><text y="12.283333778381348" x="58.5" text-decoration="blink" text-anchor="middle" font-style="normal" font-weight="normal" font-size="13" fill="#323232" font-family="Arial,宋体" id="SvgjsText1227">Initialize the code</text><text y="28.533333778381348" x="58.5" text-decoration="blink" text-anchor="middle" font-style="normal" font-weight="normal" font-size="13" fill="#323232" font-family="Arial,宋体" id="SvgjsText1228">r properties (symb</text><text y="44.78333377838135" x="58.5" text-decoration="blink" text-anchor="middle" font-style="normal" font-weight="normal" font-size="13" fill="#323232" font-family="Arial,宋体" id="SvgjsText1229">ol-set,features,etc</text><text y="61.03333377838135" x="58.5" text-decoration="blink" text-anchor="middle" font-style="normal" font-weight="normal" font-size="13" fill="#323232" font-family="Arial,宋体" id="SvgjsText1230">).</text></g></g><g opacity="1" transform="translate(557.25 105.5)" id="SvgjsG1231"><path opacity="1" fill="#66ff66" stroke-width="2" stroke="#323232" stroke-dasharray="none" d="M0 0L197.25 0L197.25 203L0 203z " id="SvgjsPath1232"></path><g fill="#ffffff" transform="matrix(1 0 0 1 10 20.25)" id="SvgjsG1233"><text y="12.283333778381348" x="88.625" text-decoration="blink" text-anchor="middle" font-style="normal" font-weight="normal" font-size="13" fill="#323232" font-family="Arial,宋体" id="SvgjsText1234">Pre-handle (if the length of</text><text y="28.533333778381348" x="88.625" text-decoration="blink" text-anchor="middle" font-style="normal" font-weight="normal" font-size="13" fill="#323232" font-family="Arial,宋体" id="SvgjsText1235"> the given probabilities arra</text><text y="44.78333377838135" x="88.625" text-decoration="blink" text-anchor="middle" font-style="normal" font-weight="normal" font-size="13" fill="#323232" font-family="Arial,宋体" id="SvgjsText1236">y (mark as s) does not full-f</text><text y="61.03333377838135" x="88.625" text-decoration="blink" text-anchor="middle" font-style="normal" font-weight="normal" font-size="13" fill="#323232" font-family="Arial,宋体" id="SvgjsText1237">ill the equation s=(base-1)*</text><text y="77.28333377838135" x="88.625" text-decoration="blink" text-anchor="middle" font-style="normal" font-weight="normal" font-size="13" fill="#323232" font-family="Arial,宋体" id="SvgjsText1238">n+base),in which base stan</text><text y="93.53333377838135" x="88.625" text-decoration="blink" text-anchor="middle" font-style="normal" font-weight="normal" font-size="13" fill="#323232" font-family="Arial,宋体" id="SvgjsText1239">ds for the number of the sy</text><text y="109.78333377838135" x="88.625" text-decoration="blink" text-anchor="middle" font-style="normal" font-weight="normal" font-size="13" fill="#323232" font-family="Arial,宋体" id="SvgjsText1240">mbols for coding and n sta</text><text y="126.03333377838135" x="88.625" text-decoration="blink" text-anchor="middle" font-style="normal" font-weight="normal" font-size="13" fill="#323232" font-family="Arial,宋体" id="SvgjsText1241">nds for any none-negative i</text><text y="142.28333377838135" x="88.625" text-decoration="blink" text-anchor="middle" font-style="normal" font-weight="normal" font-size="13" fill="#323232" font-family="Arial,宋体" id="SvgjsText1242">nteger,then fill in the least z</text><text y="158.53333377838135" x="88.625" text-decoration="blink" text-anchor="middle" font-style="normal" font-weight="normal" font-size="13" fill="#323232" font-family="Arial,宋体" id="SvgjsText1243">eros to full-fill it).</text></g></g><g opacity="1" transform="translate(575.4458312988281 646.9833374023438)" id="SvgjsG1244"><path opacity="1" fill="#cfcfcf" stroke-width="2" stroke="#323232" stroke-dasharray="none" d="M16.66666603088379 0L83.33333587646484 0C105.55555725097656 0 105.55555725097656 50 83.33333587646484 50L16.66666603088379 50C-5.55555534362793 50 -5.55555534362793 0 16.66666603088379 0z " id="SvgjsPath1245"></path><g fill="#ffffff" transform="matrix(1 0 0 1 10 8.75)" id="SvgjsG1246"><text y="12.283333778381348" x="40" text-decoration="blink" text-anchor="middle" font-style="normal" font-weight="normal" font-size="13" fill="#323232" font-family="Arial,宋体" id="SvgjsText1247">Return the c</text><text y="28.533333778381348" x="40" text-decoration="blink" text-anchor="middle" font-style="normal" font-weight="normal" font-size="13" fill="#323232" font-family="Arial,宋体" id="SvgjsText1248">ode-tree</text></g></g><g opacity="1" transform="translate(399.75 167)" id="SvgjsG1249"><path opacity="1" fill="#66ff66" stroke-width="2" stroke="#323232" stroke-dasharray="none" d="M0 0L128.5 0L128.5 80L0 80z " id="SvgjsPath1250"></path><g fill="#ffffff" transform="matrix(1 0 0 1 10 15.625)" id="SvgjsG1251"><text y="12.283333778381348" x="54.25" text-decoration="blink" text-anchor="middle" font-style="normal" font-weight="normal" font-size="13" fill="#323232" font-family="Arial,宋体" id="SvgjsText1252">Sort the probab</text><text y="28.533333778381348" x="54.25" text-decoration="blink" text-anchor="middle" font-style="normal" font-weight="normal" font-size="13" fill="#323232" font-family="Arial,宋体" id="SvgjsText1253">ilities array in de</text><text y="44.78333377838135" x="54.25" text-decoration="blink" text-anchor="middle" font-style="normal" font-weight="normal" font-size="13" fill="#323232" font-family="Arial,宋体" id="SvgjsText1254">sscending order</text></g></g><g opacity="1" transform="translate(746.1531219482422 469)" id="SvgjsG1255"><path opacity="1" fill="#66ff66" stroke-width="2" stroke="#323232" stroke-dasharray="none" d="M0 0L203.69375610351562 0L203.69375610351562 177.98333740234375L0 177.98333740234375z " id="SvgjsPath1256"></path><g fill="#ffffff" transform="matrix(1 0 0 1 10 32.116668701171875)" id="SvgjsG1257"><text y="12.283333778381348" x="91.84687805175781" text-decoration="blink" text-anchor="middle" font-style="normal" font-weight="normal" font-size="13" fill="#323232" font-family="Arial,宋体" id="SvgjsText1258">Code the last [base] element</text><text y="28.533333778381348" x="91.84687805175781" text-decoration="blink" text-anchor="middle" font-style="normal" font-weight="normal" font-size="13" fill="#323232" font-family="Arial,宋体" id="SvgjsText1259">s and put the corodinate cod</text><text y="44.78333377838135" x="91.84687805175781" text-decoration="blink" text-anchor="middle" font-style="normal" font-weight="normal" font-size="13" fill="#323232" font-family="Arial,宋体" id="SvgjsText1260">e-symbols into the code-tre</text><text y="61.03333377838135" x="91.84687805175781" text-decoration="blink" text-anchor="middle" font-style="normal" font-weight="normal" font-size="13" fill="#323232" font-family="Arial,宋体" id="SvgjsText1261">e,meanwhile calculate the su</text><text y="77.28333377838135" x="91.84687805175781" text-decoration="blink" text-anchor="middle" font-style="normal" font-weight="normal" font-size="13" fill="#323232" font-family="Arial,宋体" id="SvgjsText1262">m of their probabilities as th</text><text y="93.53333377838135" x="91.84687805175781" text-decoration="blink" text-anchor="middle" font-style="normal" font-weight="normal" font-size="13" fill="#323232" font-family="Arial,宋体" id="SvgjsText1263">e probability of the new gen</text><text y="109.78333377838135" x="91.84687805175781" text-decoration="blink" text-anchor="middle" font-style="normal" font-weight="normal" font-size="13" fill="#323232" font-family="Arial,宋体" id="SvgjsText1264">erated symbol (mark as p)</text></g></g><g opacity="1" transform="translate(372.1875 523.3583335876465)" id="SvgjsG1265"><path opacity="1" fill="#66ff66" stroke-width="2" stroke="#323232" stroke-dasharray="none" d="M0 0L134.29583740234375 0L134.29583740234375 69.26667022705078L0 69.26667022705078z " id="SvgjsPath1266"></path><g fill="#ffffff" transform="matrix(1 0 0 1 10 18.38333511352539)" id="SvgjsG1267"><text y="12.283333778381348" x="57.147918701171875" text-decoration="blink" text-anchor="middle" font-style="normal" font-weight="normal" font-size="13" fill="#323232" font-family="Arial,宋体" id="SvgjsText1268">Reduce the proba</text><text y="28.533333778381348" x="57.147918701171875" text-decoration="blink" text-anchor="middle" font-style="normal" font-weight="normal" font-size="13" fill="#323232" font-family="Arial,宋体" id="SvgjsText1269">bilities array </text></g></g><g opacity="1" transform="translate(536.25 497.8000030517578)" id="SvgjsG1270"><path opacity="1" fill="#ffff66" stroke-width="2" stroke="#323232" stroke-dasharray="none" d="M0 60.19166564941406L89.19583129882812 0L178.39166259765625 60.19166564941406L89.19583129882812 120.38333129882812L0 60.19166564941406z " id="SvgjsPath1271"></path><g fill="#ffffff" transform="matrix(1 0 0 1 10 43.94166564941406)" id="SvgjsG1272"><text y="12.283333778381348" x="79.19583129882812" text-decoration="blink" text-anchor="middle" font-style="normal" font-weight="normal" font-size="13" fill="#323232" font-family="Arial,宋体" id="SvgjsText1273">size(of the probabilities a</text><text y="28.533333778381348" x="79.19583129882812" text-decoration="blink" text-anchor="middle" font-style="normal" font-weight="normal" font-size="13" fill="#323232" font-family="Arial,宋体" id="SvgjsText1274">rray)&gt;1?</text></g></g><g id="SvgjsG1275"><path marker-end="url(#SvgjsMarker1277)" fill="none" stroke-width="2" stroke="#323232" stroke-dasharray="none" d="M625.44580078125 618.183349609375L625.44580078125 632.5833129882812L625.44580078125 632.5833129882812L625.44580078125 633.5833129882812 " id="SvgjsPath1276"></path><g fill="#ffffff" transform="matrix(1 0 0 1 625.4458312988281 617.7583351135254)" id="SvgjsG1279"><path transform="translate(-0.008331298828125 0)" fill="#ffffff" d="M0 0H0.01666259765625V0.01666259765625H0V0z " id="SvgjsPath1280"></path><text y="0" x="0" text-decoration="blink" text-anchor="middle" font-style="normal" font-weight="normal" font-size="13" fill="#000000" font-family="Microsoft Yahei,宋体" id="SvgjsText1281"></text></g></g><g opacity="1" transform="translate(783.75 167)" id="SvgjsG1282"><path opacity="1" fill="#66ff66" stroke-width="2" stroke="#323232" stroke-dasharray="none" d="M0 0L128.5 0L128.5 80L0 80z " id="SvgjsPath1283"></path><g fill="#ffffff" transform="matrix(1 0 0 1 10 23.75)" id="SvgjsG1284"><text y="12.283333778381348" x="54.25" text-decoration="blink" text-anchor="middle" font-style="normal" font-weight="normal" font-size="13" fill="#323232" font-family="Arial,宋体" id="SvgjsText1285">Initialize the cod</text><text y="28.533333778381348" x="54.25" text-decoration="blink" text-anchor="middle" font-style="normal" font-weight="normal" font-size="13" fill="#323232" font-family="Arial,宋体" id="SvgjsText1286">e-tree-map</text></g></g><g opacity="1" transform="translate(381.2791748046875 340.55833435058594)" id="SvgjsG1287"><path opacity="1" fill="#66ff66" stroke-width="2" stroke="#323232" stroke-dasharray="none" d="M0 0L135.20416259765625 0L135.20416259765625 92.88333129882812L0 92.88333129882812z " id="SvgjsPath1288"></path><g fill="#ffffff" transform="matrix(1 0 0 1 10 13.941665649414062)" id="SvgjsG1289"><text y="12.283333778381348" x="57.602081298828125" text-decoration="blink" text-anchor="middle" font-style="normal" font-weight="normal" font-size="13" fill="#323232" font-family="Arial,宋体" id="SvgjsText1290">Adjust the code-t</text><text y="28.533333778381348" x="57.602081298828125" text-decoration="blink" text-anchor="middle" font-style="normal" font-weight="normal" font-size="13" fill="#323232" font-family="Arial,宋体" id="SvgjsText1291">ree-map and put t</text><text y="44.78333377838135" x="57.602081298828125" text-decoration="blink" text-anchor="middle" font-style="normal" font-weight="normal" font-size="13" fill="#323232" font-family="Arial,宋体" id="SvgjsText1292">he new code-tree</text><text y="61.03333377838135" x="57.602081298828125" text-decoration="blink" text-anchor="middle" font-style="normal" font-weight="normal" font-size="13" fill="#323232" font-family="Arial,宋体" id="SvgjsText1293"> into it</text></g></g><g opacity="1" transform="translate(786.375 351.5)" id="SvgjsG1294"><path opacity="1" fill="#66ff66" stroke-width="2" stroke="#323232" stroke-dasharray="none" d="M0 0L123.25 0L123.25 71L0 71z " id="SvgjsPath1295"></path><g fill="#ffffff" transform="matrix(1 0 0 1 10 19.25)" id="SvgjsG1296"><text y="12.283333778381348" x="51.625" text-decoration="blink" text-anchor="middle" font-style="normal" font-weight="normal" font-size="13" fill="#323232" font-family="Arial,宋体" id="SvgjsText1297">New a code-tre</text><text y="28.533333778381348" x="51.625" text-decoration="blink" text-anchor="middle" font-style="normal" font-weight="normal" font-size="13" fill="#323232" font-family="Arial,宋体" id="SvgjsText1298">e</text></g></g><g id="SvgjsG1299"><path marker-end="url(#SvgjsMarker1301)" fill="none" stroke-width="2" stroke="#323232" stroke-dasharray="none" d="M848 422.5L848 445.75L848 445.75L848 453.7639465332031 " id="SvgjsPath1300"></path><g fill="#ffffff" transform="matrix(1 0 0 1 848 430.00696601125014)" id="SvgjsG1303"><path transform="translate(-0.008331298828125 0)" fill="#ffffff" d="M0 0H0.01666259765625V0.01666259765625H0V0z " id="SvgjsPath1304"></path><text y="0" x="0" text-decoration="blink" text-anchor="middle" font-style="normal" font-weight="normal" font-size="13" fill="#000000" font-family="Microsoft Yahei,宋体" id="SvgjsText1305"></text></g></g><g id="SvgjsG1306"><path marker-end="url(#SvgjsMarker1308)" fill="none" stroke-width="2" stroke="#323232" stroke-dasharray="none" d="M848 247L848 299.25L848 299.25L848 336.2639465332031 " id="SvgjsPath1307"></path><g fill="#ffffff" transform="matrix(1 0 0 1 848 283.50696601125014)" id="SvgjsG1310"><path transform="translate(-0.008331298828125 0)" fill="#ffffff" d="M0 0H0.01666259765625V0.01666259765625H0V0z " id="SvgjsPath1311"></path><text y="0" x="0" text-decoration="blink" text-anchor="middle" font-style="normal" font-weight="normal" font-size="13" fill="#000000" font-family="Microsoft Yahei,宋体" id="SvgjsText1312"></text></g></g><g opacity="1" transform="translate(528.25 846.3166656494141)" id="SvgjsG1313"><g fill="#ffffff" transform="matrix(1 0 0 1 0 20.875)" id="SvgjsG1314"><text y="14.516666412353516" x="85" text-decoration="blink" text-anchor="middle" font-style="normal" font-weight="bold" font-size="13" fill="#000000" font-family="微软雅黑,黑体,Arial,宋体" id="SvgjsText1315">Created by Bangjie Mo</text></g></g><g id="SvgjsG1316"><path marker-end="url(#SvgjsMarker1318)" fill="none" stroke-width="2" stroke="#323232" stroke-dasharray="none" d="M754.5 207L769.125 207L769.125 207L770.125 207 " id="SvgjsPath1317"></path><g fill="#ffffff" transform="matrix(1 0 0 1 762.3125 198.875)" id="SvgjsG1320"><path transform="translate(-0.008331298828125 0)" fill="#ffffff" d="M0 0H0.01666259765625V0.01666259765625H0V0z " id="SvgjsPath1321"></path><text y="0" x="0" text-decoration="blink" text-anchor="middle" font-style="normal" font-weight="normal" font-size="13" fill="#000000" font-family="Microsoft Yahei,宋体" id="SvgjsText1322"></text></g></g><g id="SvgjsG1323"><path marker-end="url(#SvgjsMarker1325)" fill="none" stroke-width="2" stroke="#323232" stroke-dasharray="none" d="M372.1875 207L385.96875 207L385.96875 207L386.96875 207 " id="SvgjsPath1324"></path><g fill="#ffffff" transform="matrix(1 0 0 1 379.578125 198.875)" id="SvgjsG1327"><path transform="translate(-0.008331298828125 0)" fill="#ffffff" d="M0 0H0.01666259765625V0.01666259765625H0V0z " id="SvgjsPath1328"></path><text y="0" x="0" text-decoration="blink" text-anchor="middle" font-style="normal" font-weight="normal" font-size="13" fill="#000000" font-family="Microsoft Yahei,宋体" id="SvgjsText1329"></text></g></g><g id="SvgjsG1330"><path marker-end="url(#SvgjsMarker1332)" fill="none" stroke-width="2" stroke="#323232" stroke-dasharray="none" d="M528.25 207L542.75 207L542.75 207L543.75 207 " id="SvgjsPath1331"></path><g fill="#ffffff" transform="matrix(1 0 0 1 536 198.875)" id="SvgjsG1334"><path transform="translate(-0.008331298828125 0)" fill="#ffffff" d="M0 0H0.01666259765625V0.01666259765625H0V0z " id="SvgjsPath1335"></path><text y="0" x="0" text-decoration="blink" text-anchor="middle" font-style="normal" font-weight="normal" font-size="13" fill="#000000" font-family="Microsoft Yahei,宋体" id="SvgjsText1336"></text></g></g><g id="SvgjsG1337"><path marker-end="url(#SvgjsMarker1339)" fill="none" stroke-width="2" stroke="#323232" stroke-dasharray="none" d="M746.1531372070312 557.99169921875L730.3973999023438 557.99169921875L730.3973999023438 557.99169921875L729.8777465820312 557.99169921875 " id="SvgjsPath1338"></path><g fill="#ffffff" transform="matrix(1 0 0 1 738.0154262616991 549.8666687011719)" id="SvgjsG1341"><path transform="translate(-0.008331298828125 0)" fill="#ffffff" d="M0 0H0.01666259765625V0.01666259765625H0V0z " id="SvgjsPath1342"></path><text y="0" x="0" text-decoration="blink" text-anchor="middle" font-style="normal" font-weight="normal" font-size="13" fill="#000000" font-family="Microsoft Yahei,宋体" id="SvgjsText1343"></text></g></g><g id="SvgjsG1344"><path marker-end="url(#SvgjsMarker1346)" fill="none" stroke-width="2" stroke="#323232" stroke-dasharray="none" d="M536.25 557.99169921875L521.36669921875 557.99169921875L521.36669921875 557.99169921875L520.36669921875 557.99169921875 " id="SvgjsPath1345"></path><g fill="#ffffff" transform="matrix(1 0 0 1 528.3083343505859 549.8666687011719)" id="SvgjsG1348"><path transform="translate(-0.008331298828125 0)" fill="#ffffff" d="M0 0H0.01666259765625V0.01666259765625H0V0z " id="SvgjsPath1349"></path><text y="0" x="0" text-decoration="blink" text-anchor="middle" font-style="normal" font-weight="normal" font-size="13" fill="#000000" font-family="Microsoft Yahei,宋体" id="SvgjsText1350"></text></g></g><g opacity="1" transform="translate(201 517.2958364486694)" id="SvgjsG1351"><path opacity="1" fill="#66ff66" stroke-width="2" stroke="#323232" stroke-dasharray="none" d="M0 0L137.48333740234375 0L137.48333740234375 81.39166259765625L0 81.39166259765625z " id="SvgjsPath1352"></path><g fill="#ffffff" transform="matrix(1 0 0 1 10 16.32083225250244)" id="SvgjsG1353"><text y="12.283333778381348" x="58.741668701171875" text-decoration="blink" text-anchor="middle" font-style="normal" font-weight="normal" font-size="13" fill="#323232" font-family="Arial,宋体" id="SvgjsText1354">Find the index to i</text><text y="28.533333778381348" x="58.741668701171875" text-decoration="blink" text-anchor="middle" font-style="normal" font-weight="normal" font-size="13" fill="#323232" font-family="Arial,宋体" id="SvgjsText1355">nsert p in the pro</text><text y="44.78333377838135" x="58.741668701171875" text-decoration="blink" text-anchor="middle" font-style="normal" font-weight="normal" font-size="13" fill="#323232" font-family="Arial,宋体" id="SvgjsText1356">babilities array</text></g></g><g id="SvgjsG1357"><path marker-end="url(#SvgjsMarker1359)" fill="none" stroke-width="2" stroke="#323232" stroke-dasharray="none" d="M372.1875 557.99169921875L355.3354187011719 557.99169921875L355.3354187011719 557.99169921875L353.7193908691406 557.99169921875 " id="SvgjsPath1358"></path><g fill="#ffffff" transform="matrix(1 0 0 1 362.95345268992173 549.8666687011719)" id="SvgjsG1361"><path transform="translate(-0.008331298828125 0)" fill="#ffffff" d="M0 0H0.01666259765625V0.01666259765625H0V0z " id="SvgjsPath1362"></path><text y="0" x="0" text-decoration="blink" text-anchor="middle" font-style="normal" font-weight="normal" font-size="13" fill="#000000" font-family="Microsoft Yahei,宋体" id="SvgjsText1363"></text></g></g><g opacity="1" transform="translate(201.98333740234375 348.0250005722046)" id="SvgjsG1364"><path opacity="1" fill="#66ff66" stroke-width="2" stroke="#323232" stroke-dasharray="none" d="M0 0L135.51666259765625 0L135.51666259765625 77.94999694824219L0 77.94999694824219z " id="SvgjsPath1365"></path><g fill="#ffffff" transform="matrix(1 0 0 1 10 22.72499942779541)" id="SvgjsG1366"><text y="12.283333778381348" x="57.758331298828125" text-decoration="blink" text-anchor="middle" font-style="normal" font-weight="normal" font-size="13" fill="#323232" font-family="Arial,宋体" id="SvgjsText1367">Insert p into the p</text><text y="28.533333778381348" x="57.758331298828125" text-decoration="blink" text-anchor="middle" font-style="normal" font-weight="normal" font-size="13" fill="#323232" font-family="Arial,宋体" id="SvgjsText1368">robabilities array</text></g></g><g opacity="1" transform="translate(557.25 341.4916687011719)" id="SvgjsG1369"><path opacity="1" fill="#66ff66" stroke-width="2" stroke="#323232" stroke-dasharray="none" d="M0 0L154.29583740234375 0L154.29583740234375 91.01666259765625L0 91.01666259765625z " id="SvgjsPath1370"></path><g fill="#ffffff" transform="matrix(1 0 0 1 10 21.133331298828125)" id="SvgjsG1371"><text y="12.283333778381348" x="67.14791870117188" text-decoration="blink" text-anchor="middle" font-style="normal" font-weight="normal" font-size="13" fill="#323232" font-family="Arial,宋体" id="SvgjsText1372">Put the code-tree in</text><text y="28.533333778381348" x="67.14791870117188" text-decoration="blink" text-anchor="middle" font-style="normal" font-weight="normal" font-size="13" fill="#323232" font-family="Arial,宋体" id="SvgjsText1373">to the code-tree-ma</text><text y="44.78333377838135" x="67.14791870117188" text-decoration="blink" text-anchor="middle" font-style="normal" font-weight="normal" font-size="13" fill="#323232" font-family="Arial,宋体" id="SvgjsText1374">p</text></g></g><g id="SvgjsG1375"><path marker-end="url(#SvgjsMarker1377)" fill="none" stroke-width="2" stroke="#323232" stroke-dasharray="none" d="M269.7416687011719 517.2958374023438L269.7416687011719 471.6354064941406L269.7416687011719 471.6354064941406L269.7416687011719 441.2110595703125 " id="SvgjsPath1376"></path><g fill="#ffffff" transform="matrix(1 0 0 1 269.7416687011719 471.1284519269823)" id="SvgjsG1379"><path transform="translate(-0.008331298828125 0)" fill="#ffffff" d="M0 0H0.01666259765625V0.01666259765625H0V0z " id="SvgjsPath1380"></path><text y="0" x="0" text-decoration="blink" text-anchor="middle" font-style="normal" font-weight="normal" font-size="13" fill="#000000" font-family="Microsoft Yahei,宋体" id="SvgjsText1381"></text></g></g><g id="SvgjsG1382"><path marker-end="url(#SvgjsMarker1384)" fill="none" stroke-width="2" stroke="#323232" stroke-dasharray="none" d="M337.5 387L359.38958740234375 387L359.38958740234375 387L366.0431213378906 387 " id="SvgjsPath1383"></path><g fill="#ffffff" transform="matrix(1 0 0 1 351.7715534135939 378.875)" id="SvgjsG1386"><path transform="translate(-0.00833892822265625 0)" fill="#ffffff" d="M0 0H0.0166778564453125V0.01666259765625H0V0z " id="SvgjsPath1387"></path><text y="0" x="0" text-decoration="blink" text-anchor="middle" font-style="normal" font-weight="normal" font-size="13" fill="#000000" font-family="Microsoft Yahei,宋体" id="SvgjsText1388"></text></g></g><g id="SvgjsG1389"><path marker-end="url(#SvgjsMarker1391)" fill="none" stroke-width="2" stroke="#323232" stroke-dasharray="none" d="M516.4833374023438 387L536.86669921875 387L536.86669921875 387L542.013916015625 387 " id="SvgjsPath1390"></path><g fill="#ffffff" transform="matrix(1 0 0 1 529.248634712422 378.875)" id="SvgjsG1393"><path transform="translate(-0.008331298828125 0)" fill="#ffffff" d="M0 0H0.01666259765625V0.01666259765625H0V0z " id="SvgjsPath1394"></path><text y="0" x="0" text-decoration="blink" text-anchor="middle" font-style="normal" font-weight="normal" font-size="13" fill="#000000" font-family="Microsoft Yahei,宋体" id="SvgjsText1395"></text></g></g><g id="SvgjsG1396"><path marker-end="url(#SvgjsMarker1398)" fill="none" stroke-width="2" stroke="#323232" stroke-dasharray="none" d="M711.5458374023438 387L748.96044921875 387L748.96044921875 387L771.138916015625 387 " id="SvgjsPath1397"></path><g fill="#ffffff" transform="matrix(1 0 0 1 741.342384712422 378.875)" id="SvgjsG1400"><path transform="translate(-0.00833892822265625 0)" fill="#ffffff" d="M0 0H0.0166778564453125V0.01666259765625H0V0z " id="SvgjsPath1401"></path><text y="0" x="0" text-decoration="blink" text-anchor="middle" font-style="normal" font-weight="normal" font-size="13" fill="#000000" font-family="Microsoft Yahei,宋体" id="SvgjsText1402"></text></g></g><g opacity="1" transform="translate(575.4458312988281 740.9833374023438)" id="SvgjsG1403"><path opacity="1" fill="#cfcfcf" stroke-width="2" stroke="#323232" stroke-dasharray="none" d="M16.66666603088379 0L83.33333587646484 0C105.55555725097656 0 105.55555725097656 50 83.33333587646484 50L16.66666603088379 50C-5.55555534362793 50 -5.55555534362793 0 16.66666603088379 0z " id="SvgjsPath1404"></path><g fill="#ffffff" transform="matrix(1 0 0 1 10 16.875)" id="SvgjsG1405"><text y="12.283333778381348" x="40" text-decoration="blink" text-anchor="middle" font-style="normal" font-weight="normal" font-size="13" fill="#323232" font-family="Arial,宋体" id="SvgjsText1406">End</text></g></g><g id="SvgjsG1407"><path marker-end="url(#SvgjsMarker1409)" fill="none" stroke-width="2" stroke="#323232" stroke-dasharray="none" d="M625.44580078125 696.9833374023438L625.44580078125 718.9833374023438L625.44580078125 718.9833374023438L625.44580078125 725.7472534179688 " id="SvgjsPath1408"></path><g fill="#ffffff" transform="matrix(1 0 0 1 625.4458312988281 703.2403034135939)" id="SvgjsG1411"><path transform="translate(-0.008331298828125 0)" fill="#ffffff" d="M0 0H0.01666259765625V0.01666259765625H0V0z " id="SvgjsPath1412"></path><text y="0" x="0" text-decoration="blink" text-anchor="middle" font-style="normal" font-weight="normal" font-size="13" fill="#000000" font-family="Microsoft Yahei,宋体" id="SvgjsText1413"></text></g></g><g id="SvgjsG1414"><path marker-end="url(#SvgjsMarker1416)" fill="none" stroke-width="2" stroke="#323232" stroke-dasharray="none" d="M303.6875 142L303.6875 154.5L303.6875 154.5L303.6875 155.5 " id="SvgjsPath1415"></path><g fill="#ffffff" transform="matrix(1 0 0 1 303.6875 140.625)" id="SvgjsG1418"><path transform="translate(-0.008331298828125 0)" fill="#ffffff" d="M0 0H0.01666259765625V0.01666259765625H0V0z " id="SvgjsPath1419"></path><text y="0" x="0" text-decoration="blink" text-anchor="middle" font-style="normal" font-weight="normal" font-size="13" fill="#000000" font-family="Microsoft Yahei,宋体" id="SvgjsText1420"></text></g></g></g></g></svg>